<svg width="261" height="245" viewBox="0 0 261 245" fill="none" xmlns="http://www.w3.org/2000/svg">
<path fill-rule="evenodd" clip-rule="evenodd" d="M256 154.5L261 138.5L250.5 108.5C249.5 106 249.5 105 250.5 102.5L259.5 77.5L233 0L131 8.91712e-06L125.5 16L54 16L32 77L186.5 77C188.717 77 188.968 77.393 189.693 78.5276C189.786 78.6727 189.887 78.8299 190 79L193.5 88C193.716 88.6471 193.838 89.015 193.707 89.2242C193.535 89.5 192.922 89.5 191.5 89.5H181.5C177.5 89.5 177 94.5 179 100L197.5 154.5H256ZM5 90.5L0 106.5L10.5 136.5C11.5 139 11.5 140 10.5 142.5L1.5 167.5L28 245H130L135.5 229H207L229 168H74.5C72.2835 168 72.0321 167.607 71.3067 166.472C71.2139 166.327 71.1134 166.17 71 166L67.5 157C67.2843 156.353 67.1617 155.985 67.2926 155.776C67.4652 155.5 68.0784 155.5 69.5 155.5H79.5C83.5 155.5 84 150.5 82 145L63.5 90.5H5Z" fill="url(#paint0_linear_70_20)"/>
<defs>
<linearGradient id="paint0_linear_70_20" x1="0" y1="122.5" x2="354.5" y2="122" gradientUnits="userSpaceOnUse">
<stop stop-color="#434343"/>
<stop offset="1"/>
</linearGradient>
</defs>
</svg>
