<svg width="931" height="245" viewBox="0 0 931 245" fill="none" xmlns="http://www.w3.org/2000/svg">
<path fill-rule="evenodd" clip-rule="evenodd" d="M256 154.5L261 138.5L250.5 108.5C249.5 106 249.5 105 250.5 102.5L259.5 77.5L233 0L131 8.91712e-06L125.5 16L54 16L32 77L186.5 77C188.717 77 188.968 77.393 189.693 78.5276C189.786 78.6727 189.887 78.8299 190 79L193.5 88C193.716 88.6471 193.838 89.015 193.707 89.2242C193.535 89.5 192.922 89.5 191.5 89.5H181.5C177.5 89.5 177 94.5 179 100L197.5 154.5H256ZM5 90.5L0 106.5L10.5 136.5C11.5 139 11.5 140 10.5 142.5L1.5 167.5L28 245H130L135.5 229H207L229 168H74.5C72.2835 168 72.0321 167.607 71.3067 166.472C71.2139 166.327 71.1134 166.17 71 166L67.5 157C67.2843 156.353 67.1617 155.985 67.2926 155.776C67.4652 155.5 68.0784 155.5 69.5 155.5H79.5C83.5 155.5 84 150.5 82 145L63.5 90.5H5Z" fill="url(#paint0_linear_70_18)"/>
<path fill-rule="evenodd" clip-rule="evenodd" d="M389.5 226.5H335.5L335 14H423.5C515.5 16 519 157 423.5 162H389.5V226.5ZM389.5 65.5V110.5H420.5C447.5 108 442.5 65.5 420.5 65.5H389.5ZM579.32 231C623.779 231 659.82 194.959 659.82 150.5C659.82 106.041 623.779 70 579.32 70C534.861 70 498.82 106.041 498.82 150.5C498.82 194.959 534.861 231 579.32 231ZM578.82 182C596.493 182 610.82 167.673 610.82 150C610.82 132.327 596.493 118 578.82 118C561.147 118 546.82 132.327 546.82 150C546.82 167.673 561.147 182 578.82 182ZM768.32 75H672.82V226H723.32V140C723.32 137.5 720.82 134.5 717.32 134.5H711.32V123H768.32V75ZM781.32 42.5L830.82 27L831.32 57C831.32 59 828.82 62.5 825.82 62.5H819.82V73.5L862.82 74V122H831.32V167.5C831.32 175.5 837.82 180.5 846.32 180.5H863.32V227H829.32C794.32 227 781.82 197 781.82 180L781.32 42.5ZM930.32 27H876.32L876.82 227.5H930.32V27Z" fill="url(#paint1_linear_70_18)"/>
<defs>
<linearGradient id="paint0_linear_70_18" x1="0" y1="122.5" x2="261" y2="122.5" gradientUnits="userSpaceOnUse">
<stop stop-color="#CFD9DF"/>
<stop offset="1" stop-color="#E2EBF0"/>
</linearGradient>
<linearGradient id="paint1_linear_70_18" x1="335" y1="122.5" x2="832.579" y2="122.5" gradientUnits="userSpaceOnUse">
<stop stop-color="#F5F7FA"/>
<stop offset="1" stop-color="#C3CFE2"/>
</linearGradient>
</defs>
</svg>
