<svg width="1512" height="982" viewBox="0 0 1512 982" fill="none" xmlns="http://www.w3.org/2000/svg">
<g clip-path="url(#clip0_71_35)">
<g filter="url(#filter0_f_71_35)">
<path d="M-382.5 -24.5C-373.99 -24.3684 -364.051 -23.8214 -352.799 -22.8802C-219.038 -21.9563 275.686 -58.5002 685.5 -58.5C1002.5 -58.4998 1096.9 117.436 1230.9 282.308C1375.93 499.313 1305.15 682.891 1115.91 441.225C970.96 256.111 -79.1248 0.0119091 -352.799 -22.8802C-366.862 -22.9773 -376.935 -23.4886 -382.5 -24.5Z" fill="url(#paint0_linear_71_35)" fill-opacity="0.3"/>
<path d="M-382.5 -24.5C-167 -21.1663 965.001 248.5 1115.91 441.225C1305.15 682.891 1375.93 499.313 1230.9 282.308C1096.9 117.436 1002.5 -58.4998 685.5 -58.5C232.601 -58.5002 -324 -13.8684 -382.5 -24.5Z" stroke="black"/>
</g>
</g>
<defs>
<filter id="filter0_f_71_35" x="-520.49" y="-196.9" width="1967.08" height="890.962" filterUnits="userSpaceOnUse" color-interpolation-filters="sRGB">
<feFlood flood-opacity="0" result="BackgroundImageFix"/>
<feBlend mode="normal" in="SourceGraphic" in2="BackgroundImageFix" result="shape"/>
<feGaussianBlur stdDeviation="68.95" result="effect1_foregroundBlur_71_35"/>
</filter>
<linearGradient id="paint0_linear_71_35" x1="6.38449" y1="198.461" x2="1191.5" y2="516.5" gradientUnits="userSpaceOnUse">
<stop stop-color="#15418A"/>
<stop offset="1" stop-color="#1C7299"/>
</linearGradient>
<clipPath id="clip0_71_35">
<rect width="1512" height="982" fill="white"/>
</clipPath>
</defs>
</svg>
